<svg xmlns="http://www.w3.org/2000/svg" version="1.1" xmlns:xlink="http://www.w3.org/1999/xlink" xmlns:svgjs="http://svgjs.com/svgjs" width="45.7" height="45.7"><svg xmlns="http://www.w3.org/2000/svg" version="1.1" xmlns:xlink="http://www.w3.org/1999/xlink" xmlns:svgjs="http://svgjs.com/svgjs" width="45.7" height="45.7"><svg version="1.1" id="SvgjsSvg1007" xmlns="http://www.w3.org/2000/svg" xmlns:xlink="http://www.w3.org/1999/xlink" x="0px" y="0px" viewBox="0 0 35.9 45.7" style="enable-background:new 0 0 35.9 45.7;" xml:space="preserve">
    <style>
              .st2{fill:#ff9e00;}
	          .st3{fill:#261a7c;}
            </style>
    <g id="SvgjsG1006" transform="translate(-125 -203.802)">
	<path class="st2" d="M159.9,221.7c0-9.3-7.6-16.9-17-16.9c-9.3,0-16.9,7.6-16.9,16.9c0,3.7,1.2,7.3,3.4,10.2c0,0,0.5,0.6,0.6,0.6
		l13,15.4l13-15.4c0.1-0.1,0.5-0.7,0.5-0.7C158.7,229,159.9,225.4,159.9,221.7z"></path>
        <g id="SvgjsG1005" transform="translate(118.912 206.37)">
                <path id="SvgjsPath1004" data-name="Path 477" d="M30,13.37a5.608,5.608,0,0,0,0,7.922l.732-.732a4.573,4.573,0,0,1,0-6.47Z" transform="translate(-10.18 -7.219)" fill="#261a7c" stroke="#261a7c" stroke-width="0.5"></path>
            <path id="SvgjsPath1003" data-name="Path 478" d="M63.212,21.312a5.608,5.608,0,0,0,0-7.922l-.732.732a4.573,4.573,0,0,1,0,6.47Z" transform="translate(-35.469 -7.234)" fill="#261a7c" stroke="#261a7c" stroke-width="0.5"></path>
            <path id="SvgjsPath1002" data-name="Path 479" d="M18.03,15.861a8.131,8.131,0,0,1,0-11.5l-.719-.73a9.166,9.166,0,0,0,0,12.963Z" transform="translate(0 0)" fill="#261a7c" stroke="#261a7c" stroke-width="0.5"></path>
            <path id="SvgjsPath1001" data-name="Path 480" d="M72.939,3.63l-.719.732a8.142,8.142,0,0,1,0,11.5l.719.73a9.177,9.177,0,0,0,0-12.963Z" transform="translate(-42.689 0)" fill="#261a7c" stroke="#261a7c" stroke-width="0.5"></path>
            <path id="SvgjsPath1000" data-name="Path 481" d="M37.073,38.867a.518.518,0,0,0,.487-.7L32.18,23.617a2.5,2.5,0,1,0-2.492,0l-5.38,14.554a.518.518,0,1,0,.971.36l.59-1.6,5.065-5.272L36,36.932l.59,1.6A.518.518,0,0,0,37.073,38.867ZM29.9,20.434a1.457,1.457,0,0,1,2.07,0h0a1.454,1.454,0,1,1-2.07,0Zm1.035,3.52a2.515,2.515,0,0,0,.259-.016l1.589,4.3-1.848,1.925-1.85-1.928,1.592-4.3a2.511,2.511,0,0,0,.259.013ZM26.766,34.5l1.915-5.176,1.532,1.594Zm4.883-3.589,1.532-1.6L35.1,34.486Z" transform="translate(-7.151 -11.351)" fill="#261a7c" stroke="#261a7c" stroke-width="0.5"></path>
            </g>
</g>
    <path class="st3" d="M18,45.7L4.2,29.4c-0.1-0.1-0.6-0.7-0.6-0.7C1.3,25.7,0,21.8,0,17.9C0,8,8,0,17.9,0c9.9,0,18,8,18,17.9
	c0,3.9-1.3,7.8-3.6,10.8c-0.2,0.3-0.4,0.6-0.5,0.7L18,45.7z M4.4,28.1c0,0,0.5,0.6,0.6,0.6l13,15.4l13-15.4c0.1-0.1,0.5-0.7,0.5-0.7
	c2.2-2.9,3.4-6.5,3.4-10.2c0-9.3-7.6-16.9-17-16.9C8.6,1,1,8.6,1,17.9C1,21.6,2.2,25.2,4.4,28.1L4.4,28.1z"></path>
</svg><style>@media (prefers-color-scheme: light) { :root { filter: none; } }
</style></svg><style>@media (prefers-color-scheme: light) { :root { filter: none; } }
</style></svg>