<svg width="24" height="26" viewBox="0 0 24 26" fill="none" xmlns="http://www.w3.org/2000/svg">
<rect width="24" height="26" fill="white"/>
<path d="M9.76129 2.38568L9.03931 3.10767L14.4114 8.47977L15.1334 7.75778L9.76129 2.38568Z" fill="#CED7E2"/>
<path d="M20.22 3.17725L15.2554 8.14185L15.9774 8.86383L20.942 3.89924L20.22 3.17725Z" fill="#CED7E2"/>
<path d="M7.83951 2.23288L2.96423 7.10815L3.68622 7.83014L8.56149 2.95487L7.83951 2.23288Z" fill="#CED7E2"/>
<path d="M5.15001 20.3975C5.15001 20.6791 4.92106 20.908 4.63948 20.908H2.18948C1.9079 20.908 1.67896 20.6791 1.67896 20.3975V12.9685C1.67896 12.687 1.9079 12.458 2.18948 12.458H4.63948C4.92106 12.458 5.15001 12.687 5.15001 12.9685V20.3975Z" fill="#CED7E2"/>
<path d="M9.36058 20.3973C9.36058 20.6789 9.13164 20.9079 8.85006 20.9079H6.40005C6.11847 20.9079 5.88953 20.6789 5.88953 20.3973V8.75784C5.88953 8.47626 6.11847 8.24731 6.40005 8.24731H8.85006C9.13164 8.24731 9.36058 8.47626 9.36058 8.75784V20.3973Z" fill="#65C5B9"/>
<path d="M13.5974 20.3974C13.5974 20.679 13.3685 20.9079 13.0869 20.9079H10.6369C10.3553 20.9079 10.1263 20.679 10.1263 20.3974V10.75C10.1263 10.4685 10.3553 10.2395 10.6369 10.2395H13.0869C13.3685 10.2395 13.5974 10.4685 13.5974 10.75V20.3974Z" fill="#FFD15C"/>
<path d="M17.8342 20.3974C17.8342 20.679 17.6053 20.9079 17.3237 20.9079H14.8737C14.5921 20.9079 14.3632 20.679 14.3632 20.3974V14.679C14.3632 14.3974 14.5921 14.1685 14.8737 14.1685H17.3237C17.6053 14.1685 17.8342 14.3974 17.8342 14.679V20.3974Z" fill="#8AD4F5"/>
<path d="M22.0712 20.3974C22.0712 20.679 21.8422 20.9079 21.5606 20.9079H19.1106C18.829 20.9079 18.6001 20.679 18.6001 20.3974V7.37893C18.6001 7.09736 18.829 6.86841 19.1106 6.86841H21.5606C21.8422 6.86841 22.0712 7.09736 22.0712 7.37893V20.3974Z" fill="#F36F5B"/>
<path d="M22.7974 21.6843H0.900024V23.0106H22.7974V21.6843Z" fill="#ADB3BA"/>
<path d="M2.8658 9.31851C3.52127 9.31851 4.05264 8.78714 4.05264 8.13167C4.05264 7.47619 3.52127 6.94482 2.8658 6.94482C2.21032 6.94482 1.67896 7.47619 1.67896 8.13167C1.67896 8.78714 2.21032 9.31851 2.8658 9.31851Z" fill="#3F5A6B"/>
<path d="M8.81306 3.37369C9.46854 3.37369 9.99991 2.84232 9.99991 2.18684C9.99991 1.53137 9.46854 1 8.81306 1C8.15759 1 7.62622 1.53137 7.62622 2.18684C7.62622 2.84232 8.15759 3.37369 8.81306 3.37369Z" fill="#3F5A6B"/>
<path d="M15.2448 9.82901C15.9003 9.82901 16.4317 9.29764 16.4317 8.64217C16.4317 7.98669 15.9003 7.45532 15.2448 7.45532C14.5894 7.45532 14.058 7.98669 14.058 8.64217C14.058 9.29764 14.5894 9.82901 15.2448 9.82901Z" fill="#3F5A6B"/>
<path d="M20.8842 4.13956C21.5397 4.13956 22.0711 3.60819 22.0711 2.95271C22.0711 2.29724 21.5397 1.76587 20.8842 1.76587C20.2288 1.76587 19.6974 2.29724 19.6974 2.95271C19.6974 3.60819 20.2288 4.13956 20.8842 4.13956Z" fill="#3F5A6B"/>
<path d="M17.9132 24.3736C17.9132 24.6631 17.6763 24.9 17.3869 24.9H6.27107C5.98159 24.9 5.74475 24.6631 5.74475 24.3736V19.9526C5.74475 19.6631 5.98159 19.4263 6.27107 19.4263H17.3869C17.6763 19.4263 17.9132 19.6631 17.9132 19.9526V24.3736Z" fill="white"/>
<path d="M17.9132 24.3736C17.9132 24.6631 17.6763 24.9 17.3869 24.9H6.27107C5.98159 24.9 5.74475 24.6631 5.74475 24.3736V19.9526C5.74475 19.6631 5.98159 19.4263 6.27107 19.4263H17.3869C17.6763 19.4263 17.9132 19.6631 17.9132 19.9526V24.3736Z" stroke="white" stroke-miterlimit="10"/>
<path d="M7.19718 20.3895C7.21823 20.3922 7.23665 20.3974 7.25244 20.4053C7.26823 20.4132 7.28402 20.4238 7.29981 20.4395C7.3156 20.4553 7.33402 20.4738 7.35244 20.5001L9.32876 23.0948C9.32087 23.0316 9.31823 22.9711 9.3156 22.9106C9.31297 22.8501 9.31297 22.7948 9.31297 22.7422V20.3843H9.92876V24.2632H9.56823C9.51297 24.2632 9.4656 24.2553 9.43139 24.2369C9.39455 24.2185 9.36034 24.1869 9.3235 24.1395L7.35507 21.5553C7.36034 21.6132 7.36297 21.6685 7.3656 21.7264C7.36823 21.7816 7.36823 21.8343 7.36823 21.8816V24.2632H6.75244V20.3843H7.11823C7.14981 20.3843 7.17613 20.3843 7.19718 20.3895Z" fill="#3F5A6B"/>
<path d="M13.8475 20.3843V20.9764H12.7159V24.2632H12.0159V20.9764H10.879V20.3843H13.8475Z" fill="#3F5A6B"/>
<path d="M15.5239 22.8974V24.2632H14.8239V20.3843H16.0502C16.3028 20.3843 16.5186 20.4159 16.7028 20.4764C16.887 20.5369 17.0396 20.6211 17.1581 20.7316C17.2765 20.8395 17.366 20.9711 17.4239 21.1238C17.4817 21.2764 17.5107 21.4422 17.5107 21.6238C17.5107 21.8106 17.4791 21.9843 17.4186 22.1395C17.3581 22.2948 17.266 22.4316 17.1449 22.5422C17.0239 22.6527 16.8712 22.7422 16.6896 22.8053C16.5081 22.8685 16.2949 22.9001 16.0502 22.9001H15.5239V22.8974ZM15.5239 22.3343H16.0502C16.1791 22.3343 16.2896 22.3185 16.387 22.2843C16.4817 22.2501 16.5607 22.2027 16.6239 22.1422C16.687 22.0816 16.7344 22.0053 16.7633 21.9159C16.7949 21.8264 16.8107 21.729 16.8107 21.6185C16.8107 21.5159 16.7949 21.4211 16.7633 21.3369C16.7317 21.2527 16.6844 21.1816 16.6239 21.1211C16.5607 21.0632 16.4817 21.0159 16.387 20.9869C16.2923 20.9553 16.1791 20.9395 16.0502 20.9395H15.5239V22.3343Z" fill="#3F5A6B"/>
</svg>
