<?xml version="1.0" encoding="utf-8"?>
<!-- Generator: Adobe Illustrator 27.2.0, SVG Export Plug-In . SVG Version: 6.00 Build 0)  -->
<svg version="1.1" id="Layer_1" xmlns="http://www.w3.org/2000/svg" x="0px"
     y="0px"
     viewBox="0 0 35.9 45.7" style="enable-background:new 0 0 35.9 45.7;" xml:space="preserve">
 <style>
        .st2, .st3 {
            transition: filter 0.3s ease;
        }
        .st2:hover {
            filter: brightness(80%); /* Reduces brightness to 80%, making the color darker */
        }
    </style>
    <g id="Group_1082" transform="translate(-125 -203.802)">
	<path class="st2" d="M159.9,221.7c0-9.3-7.6-16.9-17-16.9c-9.3,0-16.9,7.6-16.9,16.9c0,3.7,1.2,7.3,3.4,10.2c0,0,0.5,0.6,0.6,0.6
		l13,15.4l13-15.4c0.1-0.1,0.5-0.7,0.5-0.7C158.7,229,159.9,225.4,159.9,221.7z"/>

        <g id="noun-antenna-1210551" transform="translate(118.912 206.37)">
            <path d="M9 18.125C9 17.5037 9.50368 17 10.125 17H12.375C12.9963 17 13.5 17.5037 13.5 18.125V24.875C13.5 25.4963 12.9963 26 12.375 26H10.125C9.50368 26 9 25.4963 9 24.875V18.125Z"
                  stroke="white" stroke-width="1.5" stroke-linecap="round" stroke-linejoin="round"
                  transform="translate(6 -2)"/>
            <path d="M15.75 13.625C15.75 13.0037 16.2537 12.5 16.875 12.5H19.125C19.7463 12.5 20.25 13.0037 20.25 13.625V24.875C20.25 25.4963 19.7463 26 19.125 26H16.875C16.2537 26 15.75 25.4963 15.75 24.875V13.625Z"
                  stroke="white" stroke-width="1.5" stroke-linecap="round" stroke-linejoin="round"
                  transform="translate(6 -2)"/>
            <path d="M22.5 9.125C22.5 8.50368 23.0037 8 23.625 8H25.875C26.4963 8 27 8.50368 27 9.125V24.875C27 25.4963 26.4963 26 25.875 26H23.625C23.0037 26 22.5 25.4963 22.5 24.875V9.125Z"
                  stroke="white" stroke-width="1.5" stroke-linecap="round" stroke-linejoin="round"
                  transform="translate(6 -2)"/>
        </g>
</g>
    <path class="st3" d="M18,45.7L4.2,29.4c-0.1-0.1-0.6-0.7-0.6-0.7C1.3,25.7,0,21.8,0,17.9C0,8,8,0,17.9,0c9.9,0,18,8,18,17.9
	c0,3.9-1.3,7.8-3.6,10.8c-0.2,0.3-0.4,0.6-0.5,0.7L18,45.7z M4.4,28.1c0,0,0.5,0.6,0.6,0.6l13,15.4l13-15.4c0.1-0.1,0.5-0.7,0.5-0.7
	c2.2-2.9,3.4-6.5,3.4-10.2c0-9.3-7.6-16.9-17-16.9C8.6,1,1,8.6,1,17.9C1,21.6,2.2,25.2,4.4,28.1L4.4,28.1z"/>
</svg>
