<svg width="23" height="25" viewBox="0 0 23 25" fill="none" xmlns="http://www.w3.org/2000/svg">
<rect width="23" height="25" fill="white"/>
<path d="M1 11.831C1 10.1605 1.39479 8.51371 2.15219 7.02481L6.31258 9.14118C5.88869 9.97445 5.66774 10.8961 5.66774 11.831L1 11.831Z" fill="#CED7E2"/>
<path d="M21.1024 7.13219C21.8127 8.54813 22.1966 10.1053 22.2259 11.6891L17.7937 11.7711C17.7767 10.8496 17.5533 9.94365 17.1401 9.11984L21.1024 7.13219Z" fill="#F36F5B"/>
<path d="M17.6688 2.97681C19.1225 3.99181 20.2984 5.35524 21.0888 6.94228L17.1209 8.91857C16.661 7.99521 15.9768 7.20195 15.131 6.61141L17.6688 2.97681Z" fill="#FFD15C"/>
<path d="M2.35255 6.84838C3.19674 5.26317 4.42986 3.91845 5.93617 2.9404L8.33851 6.64032C7.45907 7.21134 6.73913 7.99644 6.24625 8.92195L2.35255 6.84838Z" fill="#CED7E2"/>
<path d="M5.98147 2.91115C7.69421 1.81142 9.68736 1.22804 11.7228 1.23072L11.7169 5.72453C10.5443 5.72298 9.39613 6.05905 8.40948 6.69257L5.98147 2.91115Z" fill="#8AD4F5"/>
<path d="M11.7088 1.01343C13.8347 1.01343 15.9115 1.65263 17.6694 2.84803L15.0063 6.76444C14.0338 6.10314 12.8849 5.74953 11.7088 5.74953L11.7088 1.01343Z" fill="#65C5B9"/>
<path d="M22.3091 11.6072C22.3091 17.4614 17.5644 22.2061 11.7102 22.2061C5.85593 22.2061 1.10852 17.4614 1.10852 11.6072" stroke="#3F5A6B" stroke-width="0.5" stroke-miterlimit="10"/>
<path d="M1.09497 11.5989C1.09497 5.7447 5.83967 1 11.6939 1C17.5481 1 22.2956 5.7447 22.2956 11.5989" stroke="#3F5A6B" stroke-width="0.5" stroke-miterlimit="10"/>
<path d="M1.08142 11.8431L22.2684 11.8376" stroke="#3F5A6B" stroke-width="0.5" stroke-miterlimit="10"/>
<path d="M5.67957 11.8322C5.67957 8.50897 8.37338 5.81787 11.6939 5.81787C15.0143 5.81787 17.7109 8.51169 17.7109 11.8322" stroke="#3F5A6B" stroke-width="0.5" stroke-miterlimit="10"/>
<path d="M11.6668 12.5593C12.0698 12.5593 12.3965 12.2326 12.3965 11.8296C12.3965 11.4266 12.0698 11.0999 11.6668 11.0999C11.2637 11.0999 10.937 11.4266 10.937 11.8296C10.937 12.2326 11.2637 12.5593 11.6668 12.5593Z" fill="#425C6C" stroke="#CED7E2" stroke-width="0.5" stroke-miterlimit="10"/>
<path opacity="0.1" d="M12.3667 11.1295L15.2965 8.20239" stroke="#1078F7" stroke-width="0.5" stroke-miterlimit="10" stroke-linecap="round"/>
<path d="M11.7102 1.01343V5.55738" stroke="#3F5A6B" stroke-width="0.6" stroke-miterlimit="10" stroke-linecap="round"/>
<path d="M16.4765 13.3108C16.5199 13.2484 16.4928 13.205 16.4196 13.2104L15.2693 13.3081C15.1961 13.3135 15.1635 13.3732 15.2015 13.4383L15.6708 14.2521C15.7088 14.3172 15.7739 14.32 15.8173 14.2576L16.4765 13.3108Z" fill="#CED7E2"/>
<path d="M16.4765 13.3108C16.5199 13.2484 16.4928 13.205 16.4196 13.2104L15.2693 13.3081C15.1961 13.3135 15.1635 13.3732 15.2015 13.4383L15.6708 14.2521C15.7088 14.3172 15.7739 14.32 15.8173 14.2576L16.4765 13.3108Z" stroke="#CED7E2" stroke-width="0.5" stroke-miterlimit="10" stroke-linecap="round"/>
<path d="M15.2829 13.9401L12.996 15.226L10.4242 13.8533M10.4242 13.856L6.16785 16.0561" stroke="#CED7E2" stroke-width="0.5" stroke-miterlimit="10" stroke-linecap="round"/>
<path d="M17.795 2.87183L14.8923 6.51512" stroke="#3F5A6B" stroke-width="0.5" stroke-miterlimit="10"/>
<path d="M6.22489 9.16543L2.1394 6.81885" stroke="#3F5A6B" stroke-width="0.5" stroke-miterlimit="10"/>
<path d="M5.6416 2.86914L8.54702 6.51244" stroke="#3F5A6B" stroke-width="0.5" stroke-miterlimit="10"/>
<path d="M21.1561 6.81616L17.076 9.17088" stroke="#3F5A6B" stroke-width="0.5" stroke-miterlimit="10"/>
<path d="M20.6109 23.6574C20.6109 23.9558 20.3667 24.1999 20.0683 24.1999H3.34115C3.04274 24.1999 2.79858 23.9558 2.79858 23.6574V18.1829C2.79858 17.8845 3.04274 17.6404 3.34115 17.6404H20.0683C20.3667 17.6404 20.6109 17.8845 20.6109 18.1829V23.6574Z" fill="white"/>
<path d="M20.6109 23.6574C20.6109 23.9558 20.3667 24.1999 20.0683 24.1999H3.34115C3.04274 24.1999 2.79858 23.9558 2.79858 23.6574V18.1829C2.79858 17.8845 3.04274 17.6404 3.34115 17.6404H20.0683C20.3667 17.6404 20.6109 17.8845 20.6109 18.1829V23.6574Z" stroke="white" stroke-miterlimit="10"/>
<path d="M8.20798 20.7083C8.20798 20.8873 8.18899 21.0582 8.15373 21.221C8.11846 21.3838 8.06692 21.5357 7.9991 21.6795C7.93128 21.8205 7.84989 21.9507 7.75494 22.0701C7.65728 22.1895 7.54877 22.2925 7.42398 22.3848L8.40873 23.4916H7.81191C7.7251 23.4916 7.64915 23.4808 7.57861 23.4563C7.51079 23.4319 7.44568 23.3885 7.38872 23.3234L6.81903 22.6751C6.72679 22.7022 6.63456 22.7212 6.53961 22.732C6.44466 22.7456 6.34429 22.751 6.2412 22.751C5.94822 22.751 5.67965 22.6995 5.43821 22.5964C5.19677 22.4933 4.98788 22.3522 4.81698 22.1705C4.64336 21.9887 4.51043 21.7717 4.41548 21.5221C4.32053 21.2725 4.27441 21.0013 4.27441 20.7083C4.27441 20.4153 4.32053 20.144 4.41548 19.8944C4.51043 19.6449 4.64336 19.4278 4.81698 19.2461C4.99059 19.0643 5.19677 18.9205 5.43821 18.8202C5.67965 18.7171 5.94822 18.6655 6.2412 18.6655C6.53418 18.6655 6.80275 18.7171 7.04419 18.8202C7.28563 18.9232 7.4918 19.067 7.66271 19.2461C7.83362 19.4278 7.96654 19.6421 8.06149 19.8944C8.15915 20.144 8.20798 20.4153 8.20798 20.7083ZM7.46739 20.7083C7.46739 20.4885 7.44026 20.2932 7.38329 20.1169C7.32632 19.9433 7.24494 19.7941 7.14185 19.672C7.03605 19.5499 6.90855 19.4577 6.75663 19.3926C6.60471 19.3275 6.43381 19.2949 6.24662 19.2949C6.05673 19.2949 5.88582 19.3275 5.7339 19.3926C5.58199 19.4577 5.45177 19.5499 5.34597 19.672C5.24017 19.7941 5.15879 19.9405 5.10182 20.1169C5.04485 20.2905 5.01501 20.4885 5.01501 20.7083C5.01501 20.928 5.04485 21.1233 5.10182 21.2997C5.15879 21.4733 5.24017 21.6225 5.34597 21.7418C5.45177 21.8639 5.58199 21.9562 5.7339 22.0186C5.88582 22.0837 6.05673 22.1162 6.24662 22.1162C6.43652 22.1162 6.60743 22.0837 6.75663 22.0186C6.90855 21.9534 7.03605 21.8612 7.14185 21.7418C7.24765 21.6198 7.32903 21.4733 7.38329 21.2997C7.43755 21.1233 7.46739 20.928 7.46739 20.7083Z" fill="#415B6C"/>
<path d="M9.91425 19.8269C10.1204 19.8269 10.3076 19.8622 10.4731 19.93C10.6413 19.9978 10.7823 20.0955 10.9017 20.2203C11.0211 20.3451 11.1106 20.4997 11.1757 20.6787C11.2408 20.8605 11.2734 21.0612 11.2734 21.2837C11.2734 21.5088 11.2408 21.7123 11.1757 21.8913C11.1106 22.0731 11.0211 22.225 10.9017 22.3525C10.7823 22.48 10.6413 22.5777 10.4731 22.6455C10.3049 22.7133 10.1204 22.7486 9.91425 22.7486C9.70808 22.7486 9.52089 22.7133 9.3527 22.6455C9.18451 22.5777 9.04073 22.48 8.92136 22.3525C8.802 22.225 8.70976 22.0704 8.64466 21.8913C8.57955 21.7096 8.547 21.5088 8.547 21.2837C8.547 21.0612 8.57955 20.8578 8.64466 20.6787C8.70976 20.497 8.802 20.3451 8.92136 20.2203C9.04073 20.0955 9.18451 19.9978 9.3527 19.93C9.52089 19.8595 9.70808 19.8269 9.91425 19.8269ZM9.91425 22.225C10.1421 22.225 10.313 22.1464 10.4215 21.9863C10.5328 21.829 10.587 21.5957 10.587 21.2891C10.587 20.9826 10.5328 20.7493 10.4215 20.5892C10.3103 20.4291 10.1421 20.3478 9.91425 20.3478C9.68095 20.3478 9.51004 20.4291 9.39882 20.5892C9.28759 20.7493 9.23334 20.9826 9.23334 21.2864C9.23334 21.5902 9.28759 21.8235 9.39882 21.9809C9.51004 22.1436 9.68095 22.225 9.91425 22.225Z" fill="#415B6C"/>
<path d="M13.9048 19.4363C13.8858 19.477 13.8614 19.5041 13.837 19.5231C13.8099 19.5394 13.78 19.5475 13.7448 19.5475C13.7095 19.5475 13.6688 19.534 13.6227 19.5041C13.5793 19.4743 13.525 19.4444 13.4653 19.4092C13.4057 19.3739 13.3324 19.3413 13.251 19.3142C13.1696 19.2844 13.0747 19.2708 12.9635 19.2708C12.8631 19.2708 12.7763 19.2844 12.703 19.3088C12.6298 19.3332 12.5674 19.3685 12.5158 19.4119C12.4643 19.4553 12.4263 19.5095 12.4019 19.5719C12.3775 19.6343 12.3639 19.7021 12.3639 19.7754C12.3639 19.8703 12.3883 19.949 12.4399 20.0114C12.4914 20.0738 12.5593 20.1281 12.6434 20.1715C12.7274 20.2149 12.8224 20.2556 12.9309 20.2908C13.0394 20.3261 13.1479 20.3641 13.2592 20.402C13.3704 20.4427 13.4816 20.4889 13.5874 20.5404C13.6959 20.5919 13.7909 20.6598 13.875 20.7384C13.9591 20.8198 14.0269 20.9175 14.0784 21.0341C14.13 21.1508 14.1544 21.2918 14.1544 21.4573C14.1544 21.6391 14.1245 21.8073 14.0649 21.9646C14.0052 22.122 13.9184 22.2603 13.8017 22.377C13.6851 22.4936 13.5467 22.5859 13.3785 22.6537C13.213 22.7215 13.0204 22.7541 12.8061 22.7541C12.684 22.7541 12.562 22.7405 12.4426 22.7161C12.3232 22.6917 12.2066 22.6564 12.0981 22.6103C11.9869 22.5642 11.8865 22.5099 11.7888 22.4448C11.6939 22.3797 11.6071 22.3092 11.5338 22.2278L11.7427 21.8724C11.7617 21.8453 11.7861 21.8263 11.8132 21.8073C11.8404 21.791 11.8729 21.7802 11.9055 21.7802C11.9489 21.7802 11.9977 21.7991 12.0492 21.8371C12.1008 21.8751 12.1632 21.9158 12.2337 21.9619C12.3043 22.008 12.3883 22.0487 12.4833 22.0867C12.5782 22.1247 12.6949 22.1437 12.8278 22.1437C13.034 22.1437 13.1913 22.0921 13.3053 21.9918C13.4192 21.8914 13.4735 21.7476 13.4735 21.5577C13.4735 21.4519 13.4491 21.3678 13.3975 21.3C13.346 21.2322 13.2781 21.1779 13.1941 21.1318C13.11 21.0857 13.015 21.0477 12.9065 21.0179C12.798 20.9853 12.6895 20.9527 12.5782 20.9148C12.467 20.8768 12.3585 20.8334 12.25 20.7818C12.1415 20.7303 12.0465 20.6625 11.9624 20.5811C11.8783 20.497 11.8105 20.3939 11.759 20.2691C11.7074 20.1443 11.683 19.9924 11.683 19.8079C11.683 19.6615 11.7101 19.5204 11.7671 19.382C11.8241 19.2437 11.9055 19.1216 12.014 19.0131C12.1225 18.9073 12.2554 18.8205 12.4128 18.7554C12.5701 18.6903 12.7492 18.6577 12.9526 18.6577C13.1805 18.6577 13.3921 18.6957 13.5847 18.7689C13.7773 18.8422 13.9428 18.9453 14.0784 19.0782L13.9048 19.4363Z" fill="#415B6C"/>
<path d="M14.5803 20.752H15.9693V21.3216H14.5803V20.752Z" fill="#415B6C"/>
<path d="M17.3772 21.3V22.7079H16.6556V18.7092H17.9198C18.1802 18.7092 18.4027 18.7418 18.5926 18.8042C18.7825 18.8666 18.9398 18.9534 19.0619 19.0673C19.184 19.1785 19.2762 19.3142 19.3359 19.4715C19.3956 19.6289 19.4254 19.7998 19.4254 19.987C19.4254 20.1796 19.3929 20.3586 19.3305 20.5187C19.2681 20.6787 19.1731 20.8198 19.0483 20.9337C18.9235 21.0477 18.7662 21.1399 18.579 21.205C18.3918 21.2701 18.1721 21.3027 17.9198 21.3027H17.3772V21.3ZM17.3772 20.7194H17.9198C18.0527 20.7194 18.1667 20.7031 18.267 20.6679C18.3647 20.6326 18.4461 20.5838 18.5112 20.5214C18.5763 20.459 18.6251 20.3803 18.655 20.2881C18.6875 20.1958 18.7038 20.0955 18.7038 19.9815C18.7038 19.8757 18.6875 19.7781 18.655 19.6913C18.6224 19.6045 18.5736 19.5312 18.5112 19.4688C18.4461 19.4091 18.3647 19.3603 18.267 19.3305C18.1694 19.2979 18.0527 19.2816 17.9198 19.2816H17.3772V20.7194Z" fill="#415B6C"/>
</svg>
